<svg width="983" height="284" viewBox="0 0 983 284" fill="none" xmlns="http://www.w3.org/2000/svg">
<g opacity="0.1">
<path d="M237.256 246C118.628 246 0 238 0 238V264H952.23V103C952.23 103 832.533 80 713.905 80C594.208 80 594.208 261 475.58 261C356.953 261 356.953 246 237.256 246Z" fill="#A6CEE3" fill-opacity="0.8"/>
<path d="M244.698 96.8788C122.361 96.8788 0.0244141 0 0.0244141 0V278H982.024V63.1818C982.024 63.1818 858.586 42.1212 736.249 42.1212C612.81 42.1212 612.81 199.023 490.473 199.023C368.137 199.023 368.137 96.8788 244.698 96.8788Z" fill="#1F78B4" fill-opacity="0.8"/>
<path d="M244.179 120C122.09 120 0 209 0 209V284H980.016V120C980.016 120 856.827 43 734.737 43C611.548 43 611.548 261 489.458 261C367.369 261 367.369 120 244.179 120Z" fill="#B2DF8A" fill-opacity="0.8"/>
</g>
</svg>
